<svg xmlns="http://www.w3.org/2000/svg" xmlns:xlink="http://www.w3.org/1999/xlink" width="65" height="44" viewBox="0 0 65 44">
    <defs>
        <path id="a" d="M.102.232h31.785v43.754H.102z"/>
    </defs>
    <g fill="none" fill-rule="evenodd">
        <path fill="#0069B3" d="M41.813 2.805C42.461 1.734 41.37.55 39.411.14c-1.943-.404-4.075.096-4.797 1.134L9.66 37.244c-1.405 2.032-.518 4.558 2.17 5.443 2.719.898 6.065-.206 7.389-2.405L41.813 2.805zM1.16 42.86c-1.165-.403-1.505-1.536-.78-2.517l13.983-18.904c1.151-1.553 0-2.933 0-2.933L1.639 3.177c-.816-.983.107-2.26 2.018-2.86 1.888-.595 4.09-.33 4.959.602l12.897 13.886s1.096 1.175 0 2.739L4.58 41.764c-.706 1.004-2.24 1.498-3.42 1.096"/>
        <g transform="translate(33)">
            <mask id="b" fill="#fff">
                <use xlink:href="#a"/>
            </mask>
            <path fill="#EE7D00" d="M24.842.304c-.913-.185-1.395-.01-2.064.493L.712 17.429s-1.562 1.21.313 3.077l21.39 21.457c2.024 2.03 5.583 2.651 7.816 1.316 2.187-1.31 2.193-3.938.106-5.846L8.314 17.316c-.813-.744-.909-.97-.073-1.63L26.075 1.557c.419-.406-.32-1.067-1.233-1.253" mask="url(#b)"/>
        </g>
    </g>
</svg>
