<svg xmlns="http://www.w3.org/2000/svg" width="55" height="28" viewBox="0 0 55 28">
    <g fill="#1A1F71" fill-rule="nonzero">
        <path d="M3.003 9.785L.089.723h1.249l1.397 4.455c.387 1.235.714 2.319.951 3.403h.03c.238-1.054.625-2.198 1.011-3.372L6.243.723h1.249l-3.21 9.062h-1.28zM8.116 6.744c.03 1.596 1.04 2.258 2.2 2.258.833 0 1.338-.15 1.784-.331l.208.843c-.416.18-1.13.391-2.14.391-1.992 0-3.152-1.324-3.152-3.281S8.146 3.1 10.02 3.1c2.11 0 2.646 1.867 2.646 3.071 0 .24-.03.422-.03.542l-4.519.03zm3.42-.843c.029-.753-.298-1.927-1.636-1.927-1.19 0-1.695 1.114-1.784 1.927h3.42zM13.586 5.299c0-.753 0-1.415-.059-2.017h1.01l.03 1.264h.06c.297-.873 1.01-1.415 1.784-1.415.119 0 .238 0 .327.03v1.114c-.12-.03-.238-.03-.387-.03-.832 0-1.397.632-1.575 1.506-.03.15-.06.36-.06.541v3.463h-1.16V5.299h.03zM18.76 1.445c0 .392-.268.723-.744.723a.709.709 0 0 1-.713-.723c0-.421.297-.753.743-.753.416 0 .713.332.713.753zM17.45 3.282h1.16v6.503h-1.16V3.282zM20.157 9.785v-5.6h-.892v-.903h.892V2.98c0-.904.208-1.747.743-2.289.446-.421 1.01-.602 1.576-.602.416 0 .773.09 1.01.181l-.148.903c-.179-.09-.416-.15-.743-.15-.981 0-1.25.873-1.25 1.896v.362h1.547v.903h-1.546v5.6h-1.19zM25.3 1.445c.03.392-.268.723-.743.723a.709.709 0 0 1-.714-.723c0-.421.298-.753.743-.753.446 0 .714.332.714.753zm-1.308 1.837h1.16v6.503h-1.16V3.282zM27.232 6.744c.03 1.596 1.041 2.258 2.2 2.258.833 0 1.338-.15 1.784-.331l.208.843c-.416.18-1.13.391-2.14.391-1.992 0-3.152-1.324-3.152-3.281S27.262 3.1 29.135 3.1c2.11 0 2.646 1.867 2.646 3.071 0 .24-.03.422-.03.542l-4.519.03zm3.42-.843c0-.753-.298-1.927-1.636-1.927-1.189 0-1.694 1.114-1.784 1.927h3.42zM38.262.24V8.1c0 .572 0 1.234.06 1.686h-1.04l-.06-1.144h-.03c-.357.722-1.13 1.264-2.2 1.264-1.546 0-2.735-1.324-2.735-3.311 0-2.168 1.308-3.493 2.884-3.493.98 0 1.635.482 1.932.994h.03V.24h1.16zm-1.16 5.691c0-.15 0-.361-.059-.512-.178-.752-.802-1.385-1.694-1.385-1.22 0-1.933 1.084-1.933 2.53 0 1.324.625 2.408 1.903 2.408.773 0 1.486-.512 1.724-1.415.03-.15.06-.331.06-.512V5.931zM42.573 9.785c.03-.452.06-1.114.06-1.686V.24h1.159v4.094h.03c.416-.722 1.16-1.204 2.2-1.204 1.605 0 2.735 1.355 2.705 3.312 0 2.318-1.457 3.492-2.884 3.492-.921 0-1.665-.36-2.14-1.234h-.03l-.06 1.084h-1.04zm1.219-2.62c0 .151.03.302.06.422.237.813.891 1.385 1.753 1.385 1.22 0 1.963-1.024 1.963-2.499 0-1.295-.654-2.408-1.903-2.408-.803 0-1.546.541-1.784 1.445-.03.12-.06.3-.06.481v1.175h-.03zM50.005 3.282l1.398 3.853c.148.422.297.934.416 1.325h.03c.119-.391.237-.903.416-1.355l1.278-3.823h1.249l-1.754 4.636c-.833 2.228-1.397 3.372-2.2 4.065-.565.512-1.13.722-1.427.752l-.297-.993c.297-.09.683-.271 1.01-.572.327-.241.714-.723.981-1.325a.7.7 0 0 0 .09-.27c0-.061-.03-.151-.09-.302l-2.378-5.991h1.278z"/>
        <g>
            <path d="M19.473 14.21l-3.538 9.063-1.427-7.707c-.178-.874-.832-1.355-1.576-1.355H7.135l-.09.391c1.19.271 2.528.693 3.36 1.144.506.271.654.512.803 1.174l2.706 10.628h3.627l5.53-13.337h-3.598zM24.527 14.21l-2.824 13.338h3.419l2.794-13.337zM32.405 17.914c0-.482.476-.994 1.457-1.114.476-.06 1.843-.12 3.36.602l.594-2.83c-.832-.301-1.873-.602-3.18-.602-3.36 0-5.739 1.806-5.768 4.426-.03 1.927 1.694 2.98 2.973 3.613 1.337.662 1.783 1.053 1.754 1.656 0 .903-1.07 1.294-2.022 1.294-1.724.03-2.705-.482-3.508-.843l-.624 2.92c.802.362 2.259.693 3.775.693 3.568 0 5.916-1.776 5.916-4.576.06-3.463-4.756-3.673-4.727-5.239M42.246 22.822l1.813-4.998 1.011 4.998h-2.824zm1.308-8.611c-.654 0-1.219.391-1.457.963l-5.113 12.344h3.567l.714-1.987h4.37l.416 1.987h3.152l-2.735-13.337h-2.914v.03z"/>
        </g>
    </g>
</svg>
