<svg xmlns="http://www.w3.org/2000/svg" width="58" height="60" viewBox="0 0 58 60">
    <g fill="none" fill-rule="nonzero">
        <path fill="#EB7300" d="M36.381 37.372a1.217 1.217 0 0 0-1.595.663c-.902 2.187-3.227 3.656-5.785 3.656-2.56 0-4.886-1.471-5.787-3.66a1.217 1.217 0 0 0-1.594-.664c-.622.256-.92.971-.664 1.594 1.274 3.093 4.507 5.172 8.045 5.172 3.535 0 6.767-2.076 8.043-5.167a1.223 1.223 0 0 0-.663-1.594z"/>
        <path fill="#0C5D99" d="M57.994 55.033c-.277-4.272-1.649-8.14-4.373-11.478a8.246 8.246 0 0 0-.144-.173c-1.138-1.328-2.59-2.264-4.177-2.953-2.966-1.293-5.967-2.507-8.951-3.756a31.54 31.54 0 0 0-.46-.187.255.255 0 0 0-.308.379 859.551 859.551 0 0 0 5.507 7.964h-.773c-2.055 0-4.109-.01-6.163.015-.236.004-.549.144-.692.325-2.833 3.587-5.646 7.188-8.462 10.787-2.815-3.599-5.628-7.2-8.462-10.787-.143-.181-.456-.322-.692-.325-2.053-.024-4.108-.015-6.163-.015h-.773a867.073 867.073 0 0 0 5.507-7.964c.141-.209-.075-.474-.308-.379l-.46.187c-2.985 1.249-5.985 2.463-8.951 3.756-1.587.689-3.039 1.625-4.177 2.953a8.246 8.246 0 0 0-.144.173C1.652 46.893.279 50.76.002 55.033c-.052.865.086 1.028.959 1.367.299.119.6.232.905.335 4.337 1.466 8.835 2.128 13.366 2.492 3.561.287 7.134.445 10.705.619.643.047 1.288.097 1.93.149.362.029.729.015 1.133.008.404.006.772.021 1.133-.008.642-.052 1.287-.102 1.93-.149 3.571-.174 7.143-.333 10.705-.619 4.531-.364 9.03-1.027 13.366-2.492.305-.103.606-.216.905-.335.873-.339 1.011-.502.955-1.367z"/>
        <path fill="#000" d="M50.669 31.889c-4.936 2.207-11.076 1.101-15.742-1.326.163-.471.593-.887.898-1.323a20.028 20.028 0 0 0 1.919-3.382c-1.34.368-2.875.573-4.586.605a.536.536 0 0 0-.068.08c-.436.662-.984 1.015-1.626 1.047-.53.029-1.095.057-1.657.057-.451 0-.853-.02-1.229-.054-1.243-.114-2.068-1.132-1.971-2.415.091-1.169 1.058-2.022 2.299-2.033l.804-.003.91.003.471-.003c.77 0 1.406.317 1.896.93a.45.45 0 0 0 .217.128 11.5 11.5 0 0 1 .314-.014l.06-.003c.354-.029.721-.068 1.126-.123a26.16 26.16 0 0 0 3.268-.664c.274-.1.533-.211.781-.328a21.117 21.117 0 0 0 .539-2.49l.026-.157c-.003 0-.003-.003-.006-.003l.117-.938c.003-.011.003-.026.006-.037-4.968-.873-9.856-1.953-14.342-4.132a29.077 29.077 0 0 1-5.101-3.134c-.097-.075-.237-.005-.229.117.07 1.137-.792 4.172-.87 4.683-.764 4.951 1.075 9.648 4.186 13.446.143.174 0 .334-.188.451-3.291 2.065-8.715 3.282-12.488 2.287-1.061-.279-4.879-1.397-2.857-2.823a19.667 19.667 0 0 0 2.809-2.39c2.304-2.376 3.847-5.259 4.56-8.681.043-.205.08-.411.108-.619.134-.91.163-1.842.222-2.763.151-2.284.334-4.557.796-6.807l.086-.405c.619-2.815 2.224-4.828 4.634-6.331C26.667-1.34 34.395-.652 39.494 4.084c1.414 1.315 2.116 3.049 2.421 4.888.103.616.202 1.235.294 1.854.63-.026 1.261-.04 1.891-.026.294.009.607.003.898.066.285.063.599.137.801.365.322.362.414.924.496 1.414.017.125.04.245.063.354.154.773.202 1.557.148 2.341a11.26 11.26 0 0 1-.568 2.855l-.04.106c-.123.354-.282.827-.528 1.212-.245.379-.57.676-1.027.676-.034 0-.068 0-.106-.003l-.271-.031a6.083 6.083 0 0 1-.354 1.109c.81 2.504 2.156 4.714 4.027 6.65a21.081 21.081 0 0 0 2.587 2.267c.185.14.391.257.559.411.454.413.437 1.052-.116 1.297z"/>
        <path fill="#000" d="M39.293 20.576l-.009.066-.003-.003a.391.391 0 0 0 .012-.063z"/>
    </g>
</svg>
