<?xml version="1.0" encoding="utf-8"?>
<!-- Generator: Adobe Illustrator 24.0.1, SVG Export Plug-In . SVG Version: 6.00 Build 0)  -->
<svg version="1.1" id="Layer_1" xmlns="http://www.w3.org/2000/svg" xmlns:xlink="http://www.w3.org/1999/xlink" x="0px" y="0px"
	 viewBox="0 0 168 25" style="enable-background:new 0 0 168 25;" xml:space="preserve">
<style type="text/css">
	.st0{fill:#C6B22F;}
	.st1{fill:#1DB47C;}
	.st2{fill:#39B44A;}
	.st3{fill:#00AC4B;}
	.st4{fill:#0DB04B;}
	.st5{fill:#009A86;}
	.st6{fill:#2FB6E9;}
	.st7{fill:#0D8ECE;}
	.st8{fill:#1479BE;}
	.st9{fill:#D6DE23;}
	.st10{fill:#9DCB3B;}
	.st11{fill:#63BB46;}
	.st12{fill:#089046;}
	.st13{fill:#0D60AD;}
	.st14{fill:#EE422E;}
	.st15{fill:#F5841F;}
	.st16{fill:#F9A61A;}
	.st17{fill:#FFD203;}
	.st18{fill:#FFDC00;}
	.st19{fill:#F0B81B;}
	.st20{fill:#FFCA06;}
	.st21{fill:#F16722;}
	.st22{fill:#F8E483;}
	.st23{fill:#DAC980;}
	.st24{fill:#CF9D2B;}
	.st25{fill:#E3AB23;}
	.st26{fill:#A08D31;}
	.st27{fill:#C3CA2F;}
	.st28{fill:#FBAE17;}
	.st29{enable-background:new    ;}
</style>
<title>A93ADF44-DA5E-4548-A1E4-D881CB607FFD</title>
<desc>Created with sketchtool.</desc>
<g>
	<polygon class="st0" points="52.17,20.2 55.29,22.6 59.09,21.64 	"/>
	<polygon class="st1" points="55.68,12.17 61.3,12.05 60.82,11.12 55.12,9.84 	"/>
	<polygon class="st2" points="63.48,13.23 62.43,12.17 62.22,13.68 63.08,14.7 	"/>
	<polygon class="st3" points="60.82,11.12 60.13,9.92 55.12,9.84 	"/>
	<polygon class="st4" points="63.15,11.89 60.13,9.92 60.82,11.12 62.43,12.17 63.48,13.23 	"/>
	<polygon class="st5" points="55.68,12.17 58.28,13.81 62.22,13.68 62.43,12.17 61.3,12.05 	"/>
	<polygon class="st6" points="48.04,12.15 37.7,15.53 49.64,12.73 	"/>
	<polygon class="st7" points="42.02,17.42 49.64,12.73 37.7,15.53 	"/>
	<polygon class="st7" points="42.81,17.76 45.5,18.94 50.11,15.94 	"/>
	<polygon class="st8" points="49.64,12.73 42.81,17.76 50.11,15.94 	"/>
	<polygon class="st9" points="35.08,0 54.63,7.84 53.91,4.84 	"/>
	<polygon class="st10" points="54.63,7.84 35.08,0 40.75,5.32 46.4,6.27 	"/>
	<polygon class="st11" points="45.4,9.68 41.79,6.29 46.4,6.27 54.63,7.84 48.51,9.83 	"/>
	<polygon class="st12" points="48.04,12.15 46.01,10.25 48.51,9.84 54.63,7.84 	"/>
	<polygon class="st13" points="42.02,17.42 49.64,12.73 45.33,15.91 	"/>
	<polygon class="st14" points="55.12,9.84 48.04,12.15 54.63,7.84 	"/>
	<polygon class="st15" points="55.68,12.17 48.04,12.15 49.64,12.73 	"/>
	<polygon class="st16" points="50.11,15.94 49.64,12.73 55.68,12.17 	"/>
	<polygon class="st17" points="50.11,15.94 58.28,13.81 55.68,12.17 	"/>
	<polygon class="st18" points="50.11,15.94 51.54,18.26 53.51,16.24 	"/>
	<polygon class="st19" points="53.51,16.24 58.28,13.81 50.11,15.94 	"/>
	<polygon class="st20" points="53.51,17.41 51.54,18.26 53.51,16.24 	"/>
	<polygon class="st21" points="48.04,12.15 55.12,9.84 55.68,12.17 	"/>
	<polygon class="st22" points="57.53,21.39 51.54,18.26 53.51,17.41 	"/>
	<polygon class="st20" points="56.79,21.33 51.54,18.26 57.53,21.39 	"/>
	<polygon class="st23" points="54.31,20.82 53.96,20.38 54.07,21.01 	"/>
	<polygon class="st24" points="54.31,20.82 53.96,20.38 54.74,20.13 	"/>
	<polygon class="st19" points="55.38,20.5 54.74,20.13 54.31,20.82 	"/>
	<polygon class="st25" points="56.72,21.66 57.53,21.39 56.79,21.33 	"/>
	<polygon class="st26" points="51.48,23.56 55.29,22.6 58.4,25 	"/>
	<polygon class="st27" points="58.4,25 55.29,22.6 59.09,21.64 	"/>
	<polygon class="st28" points="52.17,20.2 55.29,22.6 51.48,23.56 	"/>
</g>
<g class="st29">
	<path class="st7" d="M8.24,19v-1.05c-0.81,0.81-1.58,1.16-2.98,1.16c-1.37,0-2.37-0.35-3.09-1.07c-0.65-0.67-1-1.65-1-2.72
		c0-1.93,1.33-3.51,4.14-3.51h2.86v-0.6c0-1.33-0.65-1.91-2.26-1.91c-1.16,0-1.7,0.28-2.33,1L1.65,8.41C2.84,7.11,4,6.74,6.03,6.74
		c3.4,0,5.17,1.44,5.17,4.28V19H8.24z M8.17,13.88h-2.4c-1.09,0-1.7,0.51-1.7,1.37c0,0.84,0.56,1.4,1.75,1.4
		c0.84,0,1.37-0.07,1.91-0.58c0.33-0.3,0.44-0.79,0.44-1.54V13.88z"/>
	<path class="st7" d="M17.87,19c-2.49,0-3.54-1.75-3.54-3.47V2.43h3.02v12.92c0,0.72,0.3,1.09,1.07,1.09h1.16V19H17.87z"/>
	<path class="st7" d="M29.93,17.65c-0.74,0.79-1.98,1.49-3.77,1.49c-1.79,0-3-0.7-3.75-1.49c-1.09-1.14-1.37-2.51-1.37-4.72
		c0-2.19,0.28-3.56,1.37-4.7c0.74-0.79,1.95-1.49,3.75-1.49c1.79,0,3.02,0.7,3.77,1.49c1.09,1.14,1.37,2.51,1.37,4.7
		C31.3,15.14,31.02,16.51,29.93,17.65z M27.58,10c-0.35-0.35-0.81-0.54-1.42-0.54s-1.05,0.19-1.4,0.54c-0.63,0.63-0.7,1.67-0.7,2.93
		s0.07,2.33,0.7,2.96c0.35,0.35,0.79,0.54,1.4,0.54s1.07-0.19,1.42-0.54c0.63-0.63,0.7-1.7,0.7-2.96S28.21,10.62,27.58,10z"/>
</g>
<g class="st29">
	<path class="st4" d="M74.38,17.38c-1.84,0-3.44-1.2-3.44-3.36V9.26c0-2.16,1.6-3.36,3.44-3.36c1.84,0,3.42,1.21,3.42,3.36v4.76
		C77.81,16.18,76.22,17.38,74.38,17.38z M75.75,9.29c0-0.95-0.56-1.54-1.36-1.54C73.58,7.76,73,8.34,73,9.29V14
		c0,0.95,0.57,1.52,1.38,1.52c0.81,0,1.36-0.57,1.36-1.52V9.29z"/>
	<path class="st4" d="M82.61,17.29V8.22l-2.3,2V8l2.3-2h2.06v11.29H82.61z"/>
	<path class="st4" d="M88.23,17.29v-1.85l4.22-4.9c0.41-0.49,0.59-0.84,0.59-1.36c0-0.84-0.49-1.41-1.36-1.41
		c-0.68,0-1.38,0.35-1.38,1.44h-2.06c0-2.06,1.51-3.3,3.44-3.3c2,0,3.42,1.25,3.42,3.28c0,1.09-0.43,1.68-1.21,2.58l-3.15,3.66h4.36
		v1.85H88.23z"/>
	<path class="st4" d="M103.84,17.38c-1.84,0-3.57-0.97-3.6-3.33h2.06c0.03,1.01,0.73,1.47,1.54,1.47c0.89,0,1.52-0.55,1.52-1.57
		c0-0.94-0.57-1.55-1.59-1.55h-0.3v-1.79h0.3c1,0,1.43-0.62,1.43-1.41c0-0.95-0.63-1.44-1.38-1.44c-0.78,0-1.35,0.51-1.4,1.36h-2.06
		c0.05-2.01,1.55-3.22,3.46-3.22c2,0,3.44,1.33,3.44,3.23c0,1.22-0.55,1.92-1.3,2.31c0.81,0.43,1.46,1.21,1.46,2.57
		C107.43,16.27,105.78,17.38,103.84,17.38z"/>
	<path class="st4" d="M112.12,17.29V8.22l-2.3,2V8l2.3-2h2.06v11.29H112.12z"/>
	<path class="st4" d="M121.11,17.38c-1.84,0-3.44-1.2-3.44-3.36V9.26c0-2.16,1.6-3.36,3.44-3.36s3.42,1.21,3.42,3.36v4.76
		C124.54,16.18,122.95,17.38,121.11,17.38z M122.48,9.29c0-0.95-0.56-1.54-1.36-1.54c-0.81,0-1.38,0.59-1.38,1.54V14
		c0,0.95,0.57,1.52,1.38,1.52c0.81,0,1.36-0.57,1.36-1.52V9.29z"/>
	<path class="st4" d="M130.02,17.29v-1.85l4.22-4.9c0.41-0.49,0.59-0.84,0.59-1.36c0-0.84-0.49-1.41-1.36-1.41
		c-0.68,0-1.38,0.35-1.38,1.44h-2.06c0-2.06,1.51-3.3,3.44-3.3c2,0,3.42,1.25,3.42,3.28c0,1.09-0.43,1.68-1.21,2.58l-3.15,3.66h4.36
		v1.85H130.02z"/>
	<path class="st4" d="M138.63,17.29v-1.85l4.22-4.9c0.41-0.49,0.59-0.84,0.59-1.36c0-0.84-0.49-1.41-1.36-1.41
		c-0.68,0-1.38,0.35-1.38,1.44h-2.06c0-2.06,1.51-3.3,3.44-3.3c2,0,3.42,1.25,3.42,3.28c0,1.09-0.43,1.68-1.21,2.58l-3.15,3.66h4.36
		v1.85H138.63z"/>
	<path class="st4" d="M154.27,17.38c-2,0-3.52-1.25-3.52-3.49c0-1.03,0.44-1.98,0.95-3.01L154.08,6h2.25l-2.35,4.66
		c0.27-0.11,0.57-0.14,0.84-0.14c1.52,0,2.96,1.25,2.96,3.34C157.79,16.08,156.27,17.38,154.27,17.38z M154.27,12.23
		c-0.84,0-1.46,0.6-1.46,1.65c0,1.05,0.62,1.65,1.46,1.65s1.46-0.6,1.46-1.65C155.73,12.88,155.14,12.23,154.27,12.23z"/>
	<path class="st4" d="M159.53,17.29v-1.85l4.22-4.9c0.41-0.49,0.59-0.84,0.59-1.36c0-0.84-0.49-1.41-1.36-1.41
		c-0.68,0-1.38,0.35-1.38,1.44h-2.06c0-2.06,1.51-3.3,3.44-3.3c2,0,3.42,1.25,3.42,3.28c0,1.09-0.43,1.68-1.21,2.58l-3.16,3.66h4.36
		v1.85H159.53z"/>
</g>
</svg>
