<?xml version="1.0" encoding="UTF-8"?>
<svg width="168px" height="25px" viewBox="0 0 168 25" version="1.1" xmlns="http://www.w3.org/2000/svg" xmlns:xlink="http://www.w3.org/1999/xlink">
    <!-- Generator: sketchtool 45.2 (43514) - http://www.bohemiancoding.com/sketch -->
    <title>A93ADF44-DA5E-4548-A1E4-D881CB607FFD</title>
    <desc>Created with sketchtool.</desc>
    <defs>
        <polygon id="path-1" points="0.0566939805 0.12909444 17.7264863 0.12909444 17.7264863 24.4522891 0.0566939805 24.4522891"></polygon>
    </defs>
    <g id="Ikonlar" stroke="none" stroke-width="1" fill="none" fill-rule="evenodd">
        <g id="Sayfa-01" transform="translate(-773.000000, -80.000000)">
            <g id="Logolar">
                <g id="Group-9" transform="translate(773.000000, 80.000000)">
                    <g id="Page-1-Copy-4" transform="translate(36.000000, 0.000000)">
                        <path d="M23.2443111,1.55956314 C23.6041964,0.963841201 22.9975664,0.305361494 21.9086627,0.077602291 C20.8290069,-0.146723356 19.6436878,0.131013159 19.2420882,0.708041292 L5.37066669,20.7044982 C4.58930841,21.8337565 5.08279785,23.2378901 6.57684304,23.7298424 C8.0884004,24.229234 9.94882411,23.615772 10.6845326,22.3930446 L23.2443111,1.55956314 Z" id="Fill-1" fill="#0069B3"></path>
                        <path d="M0.645138606,23.8261901 C-0.00262151322,23.602265 -0.191939893,22.9724521 0.211745145,22.4269448 L7.98447823,11.9181091 C8.62447144,11.0546435 7.98447823,10.2878815 7.98447823,10.2878815 L0.911155202,1.76614195 C0.45756778,1.21949023 0.970377875,0.509377055 2.03308505,0.176159834 C3.08239431,-0.154387071 4.30684734,-0.00694751058 4.78956066,0.511093686 L11.9591934,8.23040343 C11.9591934,8.23040343 12.5685073,8.88367703 11.9591934,9.75267397 L2.54608932,23.2167859 C2.15347212,23.7748818 1.30066563,24.0499243 0.645138606,23.8261901" id="Fill-3" fill="#0069B3"></path>
                        <g id="Group-7" transform="translate(18.344999, 0.000000)">
                            <mask id="mask-2" fill="white">
                                <use xlink:href="#path-1"></use>
                            </mask>
                            <g id="Clip-6"></g>
                            <path d="M13.8098271,0.169201073 C13.3025448,0.0661196483 13.0341446,0.16298901 12.662724,0.44292011 L0.395680193,9.68879976 C0.395680193,9.68879976 -0.472466508,10.3616439 0.56985689,11.3994467 L12.4603976,23.3277729 C13.5856064,24.456233 15.5641051,24.8015849 16.8058227,24.0592434 C18.0217364,23.3304907 18.0250596,21.8700734 16.8644681,20.8091695 L4.62166429,9.62609675 C4.17009508,9.21280042 4.11672781,9.08700614 4.581199,8.7197179 L14.4951958,0.865534539 C14.7280179,0.639958992 14.3171094,0.272670752 13.8098271,0.169201073" id="Fill-5" fill="#EE7D00" mask="url(#mask-2)"></path>
                        </g>
                    </g>
                    <path d="M5.538625,17.13 C6.35996244,17.13 6.98328954,17.0860004 7.408625,16.998 L7.408625,14.05 C7.2619576,14.0059998 7.04929306,13.9620002 6.770625,13.918 C6.49195694,13.8739998 6.18396002,13.852 5.846625,13.852 C5.5532902,13.852 5.25629317,13.8739998 4.955625,13.918 C4.65495683,13.9620002 4.38362621,14.0426661 4.141625,14.16 C3.89962379,14.2773339 3.7052924,14.4423323 3.558625,14.655 C3.4119576,14.8676677 3.338625,15.1353317 3.338625,15.458 C3.338625,16.0886698 3.53662302,16.5249988 3.932625,16.767 C4.32862698,17.0090012 4.86395496,17.13 5.538625,17.13 Z M5.318625,7.208 C6.1986294,7.208 6.93928866,7.3179989 7.540625,7.538 C8.14196134,7.7580011 8.62228987,8.06599802 8.981625,8.462 C9.34096013,8.85800198 9.59762423,9.33833051 9.751625,9.903 C9.90562577,10.4676695 9.982625,11.08733 9.982625,11.762 L9.982625,18.736 C9.57195628,18.8240004 8.95229581,18.9303327 8.123625,19.055 C7.29495419,19.1796673 6.35996354,19.242 5.318625,19.242 C4.62928822,19.242 3.99862786,19.1760007 3.426625,19.044 C2.85462214,18.9119993 2.36696035,18.6993348 1.963625,18.406 C1.56028965,18.1126652 1.24495947,17.7313357 1.017625,17.262 C0.79029053,16.7926643 0.676625,16.2133368 0.676625,15.524 C0.676625,14.8639967 0.80495705,14.3066689 1.061625,13.852 C1.31829295,13.3973311 1.6666228,13.0270014 2.106625,12.741 C2.5466272,12.4549986 3.05628877,12.2496673 3.635625,12.125 C4.21496123,12.0003327 4.81995518,11.938 5.450625,11.938 C5.7439598,11.938 6.05195672,11.9563332 6.374625,11.993 C6.69729328,12.0296669 7.0419565,12.0919996 7.408625,12.18 L7.408625,11.74 C7.408625,11.4319985 7.3719587,11.1386681 7.298625,10.86 C7.2252913,10.5813319 7.09695925,10.3356677 6.913625,10.123 C6.73029075,9.91033227 6.48829317,9.74533392 6.187625,9.628 C5.88695683,9.51066608 5.50929394,9.452 5.054625,9.452 C4.43862192,9.452 3.8739609,9.49599956 3.360625,9.584 C2.8472891,9.67200044 2.42929328,9.77466608 2.106625,9.892 L1.776625,7.736 C2.11396002,7.61866608 2.60528844,7.50133392 3.250625,7.384 C3.89596156,7.26666608 4.585288,7.208 5.318625,7.208 Z M16.898875,19.22 C16.106871,19.2053333 15.4505443,19.1173341 14.929875,18.956 C14.4092057,18.7946659 13.9948765,18.5636682 13.686875,18.263 C13.3788735,17.9623318 13.1625423,17.5883356 13.037875,17.141 C12.9132077,16.6936644 12.850875,16.1840029 12.850875,15.612 L12.850875,2.368 L15.512875,1.928 L15.512875,15.106 C15.512875,15.4286683 15.5385414,15.6999989 15.589875,15.92 C15.6412086,16.1400011 15.7328743,16.3269992 15.864875,16.481 C15.9968757,16.6350008 16.1765405,16.7523329 16.403875,16.833 C16.6312095,16.9136671 16.9208732,16.9759998 17.272875,17.02 L16.898875,19.22 Z M29.491125,13.236 C29.491125,14.1453379 29.3591263,14.9739963 29.095125,15.722 C28.8311237,16.4700037 28.4571274,17.1079974 27.973125,17.636 C27.4891226,18.1640026 26.9061284,18.5746652 26.224125,18.868 C25.5421216,19.1613348 24.7904624,19.308 23.969125,19.308 C23.1477876,19.308 22.399795,19.1613348 21.725125,18.868 C21.050455,18.5746652 20.4711274,18.1640026 19.987125,17.636 C19.5031226,17.1079974 19.1254597,16.4700037 18.854125,15.722 C18.5827903,14.9739963 18.447125,14.1453379 18.447125,13.236 C18.447125,12.3266621 18.5827903,11.5016704 18.854125,10.761 C19.1254597,10.0203296 19.5067892,9.38600264 19.998125,8.858 C20.4894608,8.32999736 21.072455,7.92300143 21.747125,7.637 C22.421795,7.35099857 23.1624543,7.208 23.969125,7.208 C24.7757957,7.208 25.5201216,7.35099857 26.202125,7.637 C26.8841284,7.92300143 27.4671226,8.32999736 27.951125,8.858 C28.4351274,9.38600264 28.8127903,10.0203296 29.084125,10.761 C29.3554597,11.5016704 29.491125,12.3266621 29.491125,13.236 Z M26.763125,13.236 C26.763125,12.0919943 26.5174608,11.1863367 26.026125,10.519 C25.5347892,9.85166333 24.8491294,9.518 23.969125,9.518 C23.0891206,9.518 22.4034608,9.85166333 21.912125,10.519 C21.4207892,11.1863367 21.175125,12.0919943 21.175125,13.236 C21.175125,14.3946725 21.4207892,15.31133 21.912125,15.986 C22.4034608,16.66067 23.0891206,16.998 23.969125,16.998 C24.8491294,16.998 25.5347892,16.66067 26.026125,15.986 C26.5174608,15.31133 26.763125,14.3946725 26.763125,13.236 Z" id="alo" fill="#0069B3"></path>
                    <path d="M75.916875,13.72 C76.1955431,13.0746634 76.5768726,12.3230043 77.060875,11.465 C77.5448774,10.6069957 78.0912053,9.72333788 78.699875,8.814 C79.3085447,7.90466212 79.9612049,7.0100044 80.657875,6.13 C81.3545452,5.2499956 82.0548715,4.45800352 82.758875,3.754 L84.716875,3.754 L84.716875,13.434 L86.520875,13.434 L86.520875,15.106 L84.716875,15.106 L84.716875,19 L82.736875,19 L82.736875,15.106 L75.916875,15.106 L75.916875,13.72 Z M82.736875,6.174 C82.2968728,6.64333568 81.8532106,7.16766377 81.405875,7.747 C80.9585394,8.32633623 80.5222105,8.93133018 80.096875,9.562 C79.6715395,10.1926698 79.2718769,10.8379967 78.897875,11.498 C78.5238731,12.1580033 78.1902098,12.8033302 77.896875,13.434 L82.736875,13.434 L82.736875,6.174 Z M87.981125,13.72 C88.2597931,13.0746634 88.6411226,12.3230043 89.125125,11.465 C89.6091274,10.6069957 90.1554553,9.72333788 90.764125,8.814 C91.3727947,7.90466212 92.0254548,7.0100044 92.722125,6.13 C93.4187952,5.2499956 94.1191215,4.45800352 94.823125,3.754 L96.781125,3.754 L96.781125,13.434 L98.585125,13.434 L98.585125,15.106 L96.781125,15.106 L96.781125,19 L94.801125,19 L94.801125,15.106 L87.981125,15.106 L87.981125,13.72 Z M94.801125,6.174 C94.3611228,6.64333568 93.9174606,7.16766377 93.470125,7.747 C93.0227894,8.32633623 92.5864605,8.93133018 92.161125,9.562 C91.7357895,10.1926698 91.3361269,10.8379967 90.962125,11.498 C90.5881231,12.1580033 90.2544598,12.8033302 89.961125,13.434 L94.801125,13.434 L94.801125,6.174 Z M100.045375,13.72 C100.324043,13.0746634 100.705373,12.3230043 101.189375,11.465 C101.673377,10.6069957 102.219705,9.72333788 102.828375,8.814 C103.437045,7.90466212 104.089705,7.0100044 104.786375,6.13 C105.483045,5.2499956 106.183371,4.45800352 106.887375,3.754 L108.845375,3.754 L108.845375,13.434 L110.649375,13.434 L110.649375,15.106 L108.845375,15.106 L108.845375,19 L106.865375,19 L106.865375,15.106 L100.045375,15.106 L100.045375,13.72 Z M106.865375,6.174 C106.425373,6.64333568 105.981711,7.16766377 105.534375,7.747 C105.087039,8.32633623 104.65071,8.93133018 104.225375,9.562 C103.80004,10.1926698 103.400377,10.8379967 103.026375,11.498 C102.652373,12.1580033 102.31871,12.8033302 102.025375,13.434 L106.865375,13.434 L106.865375,6.174 Z M126.989875,9.848 C126.989875,12.8693484 126.238216,15.1536589 124.734875,16.701 C123.231534,18.2483411 120.998556,19.0293333 118.035875,19.044 L117.969875,17.328 C118.89388,17.328 119.726205,17.2400009 120.466875,17.064 C121.207545,16.8879991 121.856539,16.6056686 122.413875,16.217 C122.971211,15.8283314 123.436873,15.3260031 123.810875,14.71 C124.184877,14.0939969 124.459874,13.3386711 124.635875,12.444 C124.25454,12.6200009 123.821877,12.7629994 123.337875,12.873 C122.853873,12.9830005 122.355211,13.038 121.841875,13.038 C120.976537,13.038 120.243211,12.9096679 119.641875,12.653 C119.040539,12.396332 118.54921,12.0516688 118.167875,11.619 C117.78654,11.1863312 117.511543,10.6876695 117.342875,10.123 C117.174207,9.55833051 117.089875,8.96800308 117.089875,8.352 C117.089875,7.80933062 117.185207,7.2446696 117.375875,6.658 C117.566543,6.0713304 117.856206,5.53600242 118.244875,5.052 C118.633544,4.56799758 119.128539,4.17200154 119.729875,3.864 C120.331211,3.55599846 121.042538,3.402 121.863875,3.402 C122.699879,3.402 123.436872,3.5486652 124.074875,3.842 C124.712878,4.1353348 125.248206,4.56066388 125.680875,5.118 C126.113544,5.67533612 126.439874,6.35366267 126.659875,7.153 C126.879876,7.95233733 126.989875,8.85066168 126.989875,9.848 Z M122.061875,11.366 C122.575211,11.366 123.059206,11.3183338 123.513875,11.223 C123.968544,11.1276662 124.40854,10.9846676 124.833875,10.794 C124.848542,10.6326659 124.855875,10.4750008 124.855875,10.321 L124.855875,9.848 C124.855875,9.21733018 124.811875,8.61233623 124.723875,8.033 C124.635875,7.45366377 124.478209,6.94766883 124.250875,6.515 C124.023541,6.08233117 123.71921,5.73766795 123.337875,5.481 C122.95654,5.22433205 122.472545,5.096 121.885875,5.096 C121.401873,5.096 120.99121,5.19866564 120.653875,5.404 C120.31654,5.60933436 120.037876,5.86966509 119.817875,6.185 C119.597874,6.50033491 119.440209,6.84499813 119.344875,7.219 C119.249541,7.59300187 119.201875,7.95599824 119.201875,8.308 C119.201875,9.30533832 119.440206,10.0643307 119.916875,10.585 C120.393544,11.1056693 121.108537,11.366 122.061875,11.366 Z M139.054125,9.848 C139.054125,12.8693484 138.302466,15.1536589 136.799125,16.701 C135.295784,18.2483411 133.062806,19.0293333 130.100125,19.044 L130.034125,17.328 C130.95813,17.328 131.790455,17.2400009 132.531125,17.064 C133.271795,16.8879991 133.920789,16.6056686 134.478125,16.217 C135.035461,15.8283314 135.501123,15.3260031 135.875125,14.71 C136.249127,14.0939969 136.524124,13.3386711 136.700125,12.444 C136.31879,12.6200009 135.886127,12.7629994 135.402125,12.873 C134.918123,12.9830005 134.419461,13.038 133.906125,13.038 C133.040787,13.038 132.307461,12.9096679 131.706125,12.653 C131.104789,12.396332 130.61346,12.0516688 130.232125,11.619 C129.85079,11.1863312 129.575793,10.6876695 129.407125,10.123 C129.238457,9.55833051 129.154125,8.96800308 129.154125,8.352 C129.154125,7.80933062 129.249457,7.2446696 129.440125,6.658 C129.630793,6.0713304 129.920456,5.53600242 130.309125,5.052 C130.697794,4.56799758 131.192789,4.17200154 131.794125,3.864 C132.395461,3.55599846 133.106788,3.402 133.928125,3.402 C134.764129,3.402 135.501122,3.5486652 136.139125,3.842 C136.777128,4.1353348 137.312456,4.56066388 137.745125,5.118 C138.177794,5.67533612 138.504124,6.35366267 138.724125,7.153 C138.944126,7.95233733 139.054125,8.85066168 139.054125,9.848 Z M134.126125,11.366 C134.639461,11.366 135.123456,11.3183338 135.578125,11.223 C136.032794,11.1276662 136.47279,10.9846676 136.898125,10.794 C136.912792,10.6326659 136.920125,10.4750008 136.920125,10.321 L136.920125,9.848 C136.920125,9.21733018 136.876125,8.61233623 136.788125,8.033 C136.700125,7.45366377 136.542459,6.94766883 136.315125,6.515 C136.087791,6.08233117 135.78346,5.73766795 135.402125,5.481 C135.02079,5.22433205 134.536795,5.096 133.950125,5.096 C133.466123,5.096 133.05546,5.19866564 132.718125,5.404 C132.38079,5.60933436 132.102126,5.86966509 131.882125,6.185 C131.662124,6.50033491 131.504459,6.84499813 131.409125,7.219 C131.313791,7.59300187 131.266125,7.95599824 131.266125,8.308 C131.266125,9.30533832 131.504456,10.0643307 131.981125,10.585 C132.457794,11.1056693 133.172787,11.366 134.126125,11.366 Z M155.856625,9.848 C155.856625,12.8693484 155.104966,15.1536589 153.601625,16.701 C152.098284,18.2483411 149.865306,19.0293333 146.902625,19.044 L146.836625,17.328 C147.76063,17.328 148.592955,17.2400009 149.333625,17.064 C150.074295,16.8879991 150.723289,16.6056686 151.280625,16.217 C151.837961,15.8283314 152.303623,15.3260031 152.677625,14.71 C153.051627,14.0939969 153.326624,13.3386711 153.502625,12.444 C153.12129,12.6200009 152.688627,12.7629994 152.204625,12.873 C151.720623,12.9830005 151.221961,13.038 150.708625,13.038 C149.843287,13.038 149.109961,12.9096679 148.508625,12.653 C147.907289,12.396332 147.41596,12.0516688 147.034625,11.619 C146.65329,11.1863312 146.378293,10.6876695 146.209625,10.123 C146.040957,9.55833051 145.956625,8.96800308 145.956625,8.352 C145.956625,7.80933062 146.051957,7.2446696 146.242625,6.658 C146.433293,6.0713304 146.722956,5.53600242 147.111625,5.052 C147.500294,4.56799758 147.995289,4.17200154 148.596625,3.864 C149.197961,3.55599846 149.909288,3.402 150.730625,3.402 C151.566629,3.402 152.303622,3.5486652 152.941625,3.842 C153.579628,4.1353348 154.114956,4.56066388 154.547625,5.118 C154.980294,5.67533612 155.306624,6.35366267 155.526625,7.153 C155.746626,7.95233733 155.856625,8.85066168 155.856625,9.848 Z M150.928625,11.366 C151.441961,11.366 151.925956,11.3183338 152.380625,11.223 C152.835294,11.1276662 153.27529,10.9846676 153.700625,10.794 C153.715292,10.6326659 153.722625,10.4750008 153.722625,10.321 L153.722625,9.848 C153.722625,9.21733018 153.678625,8.61233623 153.590625,8.033 C153.502625,7.45366377 153.344959,6.94766883 153.117625,6.515 C152.890291,6.08233117 152.58596,5.73766795 152.204625,5.481 C151.82329,5.22433205 151.339295,5.096 150.752625,5.096 C150.268623,5.096 149.85796,5.19866564 149.520625,5.404 C149.18329,5.60933436 148.904626,5.86966509 148.684625,6.185 C148.464624,6.50033491 148.306959,6.84499813 148.211625,7.219 C148.116291,7.59300187 148.068625,7.95599824 148.068625,8.308 C148.068625,9.30533832 148.306956,10.0643307 148.783625,10.585 C149.260294,11.1056693 149.975287,11.366 150.928625,11.366 Z M167.920875,9.848 C167.920875,12.8693484 167.169216,15.1536589 165.665875,16.701 C164.162534,18.2483411 161.929556,19.0293333 158.966875,19.044 L158.900875,17.328 C159.82488,17.328 160.657205,17.2400009 161.397875,17.064 C162.138545,16.8879991 162.787539,16.6056686 163.344875,16.217 C163.902211,15.8283314 164.367873,15.3260031 164.741875,14.71 C165.115877,14.0939969 165.390874,13.3386711 165.566875,12.444 C165.18554,12.6200009 164.752877,12.7629994 164.268875,12.873 C163.784873,12.9830005 163.286211,13.038 162.772875,13.038 C161.907537,13.038 161.174211,12.9096679 160.572875,12.653 C159.971539,12.396332 159.48021,12.0516688 159.098875,11.619 C158.71754,11.1863312 158.442543,10.6876695 158.273875,10.123 C158.105207,9.55833051 158.020875,8.96800308 158.020875,8.352 C158.020875,7.80933062 158.116207,7.2446696 158.306875,6.658 C158.497543,6.0713304 158.787206,5.53600242 159.175875,5.052 C159.564544,4.56799758 160.059539,4.17200154 160.660875,3.864 C161.262211,3.55599846 161.973538,3.402 162.794875,3.402 C163.630879,3.402 164.367872,3.5486652 165.005875,3.842 C165.643878,4.1353348 166.179206,4.56066388 166.611875,5.118 C167.044544,5.67533612 167.370874,6.35366267 167.590875,7.153 C167.810876,7.95233733 167.920875,8.85066168 167.920875,9.848 Z M162.992875,11.366 C163.506211,11.366 163.990206,11.3183338 164.444875,11.223 C164.899544,11.1276662 165.33954,10.9846676 165.764875,10.794 C165.779542,10.6326659 165.786875,10.4750008 165.786875,10.321 L165.786875,9.848 C165.786875,9.21733018 165.742875,8.61233623 165.654875,8.033 C165.566875,7.45366377 165.409209,6.94766883 165.181875,6.515 C164.954541,6.08233117 164.65021,5.73766795 164.268875,5.481 C163.88754,5.22433205 163.403545,5.096 162.816875,5.096 C162.332873,5.096 161.92221,5.19866564 161.584875,5.404 C161.24754,5.60933436 160.968876,5.86966509 160.748875,6.185 C160.528874,6.50033491 160.371209,6.84499813 160.275875,7.219 C160.180541,7.59300187 160.132875,7.95599824 160.132875,8.308 C160.132875,9.30533832 160.371206,10.0643307 160.847875,10.585 C161.324544,11.1056693 162.039537,11.366 162.992875,11.366 Z" id="444-99-99" fill="#EE7D00"></path>
                </g>
            </g>
        </g>
    </g>
</svg>